<svg xmlns="http://www.w3.org/2000/svg" xmlns:xlink="http://www.w3.org/1999/xlink" width="264.58334mm" height="264.58334mm" viewBox="0 0 264.58334 264.58334"><defs><radialGradient xlink:href="#a" id="f" cx="158.429" cy="578.08801" r="52.351524" fx="158.429" fy="578.08801" gradientTransform="matrix(0 -4.03418 4.28018 0 -2332.227 942.236)" gradientUnits="userSpaceOnUse"/><radialGradient xlink:href="#b" id="g" cx="172.61488" cy="600.69244" r="65" fx="172.61488" fy="600.69244" gradientTransform="matrix(.67441 -1.16203 1.51283 .87801 -814.366 -47.835)" gradientUnits="userSpaceOnUse"/><radialGradient xlink:href="#c" id="h" cx="144.01199" cy="51.3367" r="67.080994" fx="144.01199" fy="51.3367" gradientTransform="matrix(-2.3989 .67549 -.23008 -.81732 464.996 -26.403)" gradientUnits="userSpaceOnUse"/><radialGradient xlink:href="#d" id="e" cx="199.78836" cy="628.43787" r="52.351524" fx="199.78836" fy="628.43787" gradientTransform="matrix(-3.10797 .87652 -.6315 -2.23914 1345.65 1374.198)" gradientUnits="userSpaceOnUse"/><linearGradient id="d"><stop offset="0" style="stop-color:#ff005f;stop-opacity:1"/><stop offset="1" style="stop-color:#fc01d8;stop-opacity:1"/></linearGradient><linearGradient id="c"><stop offset="0" stop-color="#3771c8" style="stop-color:#780cff;stop-opacity:1"/><stop offset="1" stop-color="#3771c8" style="stop-color:#820bff;stop-opacity:0"/></linearGradient><linearGradient id="b"><stop offset="0" style="stop-color:#fc0;stop-opacity:1"/><stop offset="1" style="stop-color:#fc0;stop-opacity:0"/></linearGradient><linearGradient id="a"><stop offset="0" stop-color="#fd5" style="stop-color:#fc0;stop-opacity:1"/><stop offset="0.12416067" stop-color="#fd5" style="stop-color:#fc0;stop-opacity:1"/><stop offset="0.56719624" stop-color="#fd5" style="stop-color:#fe4a05;stop-opacity:1"/><stop offset="0.69420281" stop-color="#ff543e" style="stop-color:#ff0f3f;stop-opacity:1"/><stop offset="1" stop-color="#ff543e" style="stop-color:#fe0657;stop-opacity:0"/></linearGradient></defs><path d="M204.15 18.143c-55.23 0-71.383.057-74.523.317-11.334.943-18.387 2.728-26.07 6.554-5.922 2.942-10.592 6.351-15.201 11.13-8.394 8.716-13.481 19.439-15.323 32.184-.895 6.188-1.156 7.45-1.208 39.056-.02 10.536 0 24.4 0 42.999 0 55.2.06 71.341.325 74.476.916 11.032 2.645 17.973 6.308 25.565 7 14.533 20.37 25.443 36.12 29.514 5.453 1.404 11.476 2.178 19.208 2.544 3.277.142 36.669.244 70.081.244 33.413 0 66.826-.04 70.02-.203 8.954-.422 14.153-1.12 19.902-2.606 15.851-4.09 28.976-14.838 36.119-29.574 3.591-7.41 5.412-14.615 6.236-25.07.18-2.28.255-38.627.255-74.925 0-36.304-.082-72.583-.26-74.863-.835-10.625-2.656-17.77-6.364-25.32-3.042-6.182-6.42-10.799-11.324-15.519-8.752-8.361-19.455-13.45-32.21-15.29-6.18-.894-7.41-1.158-39.033-1.213z" style="fill:url(#e);fill-opacity:1;stroke-width:.264619" transform="translate(-71.815 -18.143)"/><path d="M204.15 18.143c-55.23 0-71.383.057-74.523.317-11.334.943-18.387 2.728-26.07 6.554-5.922 2.942-10.592 6.351-15.201 11.13-8.394 8.716-13.481 19.439-15.323 32.184-.895 6.188-1.156 7.45-1.208 39.056-.02 10.536 0 24.4 0 42.999 0 55.2.06 71.341.325 74.476.916 11.032 2.645 17.973 6.308 25.565 7 14.533 20.37 25.443 36.12 29.514 5.453 1.404 11.476 2.178 19.208 2.544 3.277.142 36.669.244 70.081.244 33.413 0 66.826-.04 70.02-.203 8.954-.422 14.153-1.12 19.902-2.606 15.851-4.09 28.976-14.838 36.119-29.574 3.591-7.41 5.412-14.615 6.236-25.07.18-2.28.255-38.627.255-74.925 0-36.304-.082-72.583-.26-74.863-.835-10.625-2.656-17.77-6.364-25.32-3.042-6.182-6.42-10.799-11.324-15.519-8.752-8.361-19.455-13.45-32.21-15.29-6.18-.894-7.41-1.158-39.033-1.213z" style="fill:url(#f);stroke-width:.264619" transform="translate(-71.815 -18.143)"/><path d="M204.15 18.143c-55.23 0-71.383.057-74.523.317-11.334.943-18.387 2.728-26.07 6.554-5.922 2.942-10.592 6.351-15.201 11.13-8.394 8.716-13.481 19.439-15.323 32.184-.895 6.188-1.156 7.45-1.208 39.056-.02 10.536 0 24.4 0 42.999 0 55.2.06 71.341.325 74.476.916 11.032 2.645 17.973 6.308 25.565 7 14.533 20.37 25.443 36.12 29.514 5.453 1.404 11.476 2.178 19.208 2.544 3.277.142 36.669.244 70.081.244 33.413 0 66.826-.04 70.02-.203 8.954-.422 14.153-1.12 19.902-2.606 15.851-4.09 28.976-14.838 36.119-29.574 3.591-7.41 5.412-14.615 6.236-25.07.18-2.28.255-38.627.255-74.925 0-36.304-.082-72.583-.26-74.863-.835-10.625-2.656-17.77-6.364-25.32-3.042-6.182-6.42-10.799-11.324-15.519-8.752-8.361-19.455-13.45-32.21-15.29-6.18-.894-7.41-1.158-39.033-1.213z" style="fill:url(#g);fill-opacity:1;stroke-width:.264619" transform="translate(-71.815 -18.143)"/><path d="M204.15 18.143c-55.23 0-71.383.057-74.523.317-11.334.943-18.387 2.728-26.07 6.554-5.922 2.942-10.592 6.351-15.201 11.13-8.394 8.716-13.481 19.439-15.323 32.184-.895 6.188-1.156 7.45-1.208 39.056-.02 10.536 0 24.4 0 42.999 0 55.2.06 71.341.325 74.476.916 11.032 2.645 17.973 6.308 25.565 7 14.533 20.37 25.443 36.12 29.514 5.453 1.404 11.476 2.178 19.208 2.544 3.277.142 36.669.244 70.081.244 33.413 0 66.826-.04 70.02-.203 8.954-.422 14.153-1.12 19.902-2.606 15.851-4.09 28.976-14.838 36.119-29.574 3.591-7.41 5.412-14.615 6.236-25.07.18-2.28.255-38.627.255-74.925 0-36.304-.082-72.583-.26-74.863-.835-10.625-2.656-17.77-6.364-25.32-3.042-6.182-6.42-10.799-11.324-15.519-8.752-8.361-19.455-13.45-32.21-15.29-6.18-.894-7.41-1.158-39.033-1.213z" style="fill:url(#h);fill-opacity:1;stroke-width:.264619" transform="translate(-71.815 -18.143)"/><path d="M204.16 52.116c-26.716 0-30.069.117-40.562.594-10.473.479-17.621 2.136-23.876 4.567-6.47 2.51-11.959 5.869-17.427 11.335-5.472 5.464-8.833 10.948-11.354 17.412-2.439 6.252-4.099 13.397-4.57 23.858-.47 10.485-.593 13.838-.593 40.535 0 26.697.12 30.037.595 40.522.481 10.465 2.14 17.609 4.57 23.859 2.515 6.465 5.876 11.95 11.346 17.413 5.466 5.468 10.954 8.835 17.42 11.346 6.26 2.431 13.41 4.088 23.88 4.567 10.494.477 13.845.594 40.56.594 26.718 0 30.06-.117 40.554-.594 10.473-.48 17.63-2.136 23.889-4.567 6.468-2.51 11.948-5.878 17.414-11.346 5.472-5.463 8.833-10.948 11.354-17.411 2.418-6.252 4.078-13.398 4.57-23.859.472-10.485.594-13.827.594-40.524 0-26.697-.122-30.047-.594-40.533-.492-10.465-2.152-17.608-4.57-23.858-2.521-6.466-5.882-11.95-11.354-17.414-5.472-5.468-10.944-8.827-17.42-11.335-6.272-2.431-13.425-4.088-23.897-4.567-10.493-.477-13.834-.594-40.559-.594zm-8.824 17.715c2.619-.005 5.541 0 8.825 0 26.266 0 29.379.094 39.751.565 9.591.438 14.797 2.04 18.265 3.385 4.59 1.782 7.864 3.912 11.305 7.352 3.443 3.44 5.574 6.717 7.361 11.305 1.347 3.46 2.951 8.662 3.388 18.247.471 10.362.574 13.475.574 39.71 0 26.233-.103 29.346-.574 39.709-.439 9.584-2.041 14.786-3.388 18.247-1.783 4.587-3.918 7.854-7.361 11.292-3.443 3.44-6.712 5.57-11.305 7.352-3.464 1.352-8.674 2.95-18.265 3.388-10.37.47-13.485.573-39.751.573-26.268 0-29.381-.102-39.752-.573-9.591-.443-14.797-2.044-18.266-3.39-4.591-1.781-7.87-3.911-11.313-7.352-3.444-3.44-5.575-6.709-7.362-11.298-1.347-3.461-2.951-8.663-3.388-18.247-.471-10.363-.566-13.476-.566-39.726s.095-29.347.566-39.71c.439-9.584 2.041-14.786 3.388-18.251 1.783-4.587 3.918-7.864 7.362-11.305 3.443-3.44 6.722-5.57 11.313-7.356 3.467-1.351 8.675-2.949 18.266-3.39 9.075-.409 12.592-.532 30.927-.552zm61.336 16.322c-6.517 0-11.805 5.277-11.805 11.792 0 6.512 5.288 11.796 11.805 11.796 6.517 0 11.805-5.284 11.805-11.796 0-6.513-5.288-11.797-11.805-11.797zM204.16 99.935c-27.9 0-50.52 22.603-50.52 50.482 0 27.878 22.62 50.471 50.52 50.471 27.899 0 50.51-22.593 50.51-50.471 0-27.879-22.613-50.482-50.512-50.482zm0 17.715c18.109 0 32.791 14.67 32.791 32.767 0 18.095-14.682 32.767-32.791 32.767-18.111 0-32.792-14.672-32.792-32.767 0-18.098 14.68-32.767 32.792-32.767z" style="fill:#fff;stroke-width:.266378" transform="translate(-71.815 -18.143)"/></svg>